<svg xmlns="http://www.w3.org/2000/svg" viewBox="0 0 173 227.43"><path d="M139.55 16.2C116.05-.33 90.27-3.06 63.91 8.73 38.6 20.06 23.78 40.06 20.15 67.62 16.24 97.35 5.4 194.74 1.86 224.52c26.14-16.09 110.43-67.65 136.53-83.74a46.53 46.53 0 0 0 4.58-3.16 74 74 0 0 0 23.39-32.15c12.17-31.91 2.54-68.64-26.81-89.27z" fill="#087e8b" stroke="#cdedf6" stroke-miterlimit="10" stroke-width="3" fill-rule="evenodd"/><path d="M134.62 79h-6.5a1.23 1.23 0 0 0-1.24 1.24v26.56c0 2.06-.9 4.63-4.64 4.63h-15.92a2.61 2.61 0 0 1-2.61-2.61V93a2.74 2.74 0 0 0-2.71-2.73H87.91A2.74 2.74 0 0 0 85.18 93v15.83a2.61 2.61 0 0 1-2.62 2.61H66.64c-3.73 0-4.63-2.57-4.63-4.63V80.26A1.24 1.24 0 0 0 60.77 79h-6.51c-2.77 0-2.18-1.51-.28-3.47l37.18-37.2a4.78 4.78 0 0 1 3.28-1.44 4.72 4.72 0 0 1 3.28 1.44l37.18 37.21c1.9 1.97 2.5 3.46-.28 3.46z" fill="#f06543" stroke="#cdedf6" stroke-miterlimit="10" stroke-width="3" fill-rule="evenodd"/></svg>